<mxfile host="app.diagrams.net" modified="2024-04-26T17:14:52.005Z" agent="Mozilla/5.0 (Windows NT 10.0; Win64; x64) AppleWebKit/537.36 (KHTML, like Gecko) Chrome/124.0.0.0 Safari/537.36" etag="sQEvsOB5m1LketG_Vpln" version="24.3.1" type="github">
  <diagram id="R2lEEEUBdFMjLlhIrx00" name="Page-1">
    <mxGraphModel dx="1293" dy="658" grid="1" gridSize="10" guides="1" tooltips="1" connect="1" arrows="1" fold="1" page="1" pageScale="1" pageWidth="850" pageHeight="1100" math="0" shadow="0" extFonts="Permanent Marker^https://fonts.googleapis.com/css?family=Permanent+Marker">
      <root>
        <object label="" id="0">
          <mxCell />
        </object>
        <mxCell id="1" parent="0" />
        <mxCell id="sCaKoneeT2U8swJ2Tw80-17" value="" style="edgeStyle=entityRelationEdgeStyle;fontSize=12;html=1;endArrow=ERmany;rounded=0;exitX=1;exitY=0.5;exitDx=0;exitDy=0;" edge="1" parent="1">
          <mxGeometry width="100" height="100" relative="1" as="geometry">
            <mxPoint x="220" y="140" as="sourcePoint" />
            <mxPoint x="320" y="140" as="targetPoint" />
            <Array as="points">
              <mxPoint x="230" y="140" />
              <mxPoint x="330" y="89" />
            </Array>
          </mxGeometry>
        </mxCell>
        <mxCell id="sCaKoneeT2U8swJ2Tw80-18" value="" style="edgeStyle=entityRelationEdgeStyle;fontSize=12;html=1;endArrow=ERmany;startArrow=ERmany;rounded=0;entryX=0;entryY=0.5;entryDx=0;entryDy=0;" edge="1" parent="1">
          <mxGeometry width="100" height="100" relative="1" as="geometry">
            <mxPoint x="480" y="139.5" as="sourcePoint" />
            <mxPoint x="580" y="139.5" as="targetPoint" />
          </mxGeometry>
        </mxCell>
        <mxCell id="sCaKoneeT2U8swJ2Tw80-25" value="Customer" style="swimlane;childLayout=stackLayout;horizontal=1;startSize=50;horizontalStack=0;rounded=1;fontSize=14;fontStyle=0;strokeWidth=2;resizeParent=0;resizeLast=1;shadow=0;dashed=0;align=center;arcSize=4;whiteSpace=wrap;html=1;" vertex="1" parent="1">
          <mxGeometry x="60" y="70" width="160" height="120" as="geometry" />
        </mxCell>
        <mxCell id="sCaKoneeT2U8swJ2Tw80-26" value="&lt;div&gt;&lt;span style=&quot;background-color: initial;&quot;&gt;&lt;u&gt;Customer_ID&lt;/u&gt;&lt;/span&gt;&lt;/div&gt;&lt;span style=&quot;background-color: initial;&quot;&gt;Name&lt;/span&gt;&lt;div&gt;Address&lt;/div&gt;&lt;div&gt;Phone_number&lt;/div&gt;" style="align=left;strokeColor=none;fillColor=none;spacingLeft=4;fontSize=12;verticalAlign=top;resizable=0;rotatable=0;part=1;html=1;" vertex="1" parent="sCaKoneeT2U8swJ2Tw80-25">
          <mxGeometry y="50" width="160" height="70" as="geometry" />
        </mxCell>
        <mxCell id="sCaKoneeT2U8swJ2Tw80-27" value="Order" style="swimlane;childLayout=stackLayout;horizontal=1;startSize=50;horizontalStack=0;rounded=1;fontSize=14;fontStyle=0;strokeWidth=2;resizeParent=0;resizeLast=1;shadow=0;dashed=0;align=center;arcSize=4;whiteSpace=wrap;html=1;" vertex="1" parent="1">
          <mxGeometry x="320" y="70" width="160" height="120" as="geometry" />
        </mxCell>
        <mxCell id="sCaKoneeT2U8swJ2Tw80-28" value="&lt;div&gt;&lt;u&gt;Order_ID&lt;/u&gt;&lt;/div&gt;Schedule&lt;div&gt;Customer_ID&lt;/div&gt;&lt;div&gt;&lt;div&gt;&lt;div&gt;&lt;br&gt;&lt;/div&gt;&lt;/div&gt;&lt;/div&gt;" style="align=left;strokeColor=none;fillColor=none;spacingLeft=4;fontSize=12;verticalAlign=top;resizable=0;rotatable=0;part=1;html=1;" vertex="1" parent="sCaKoneeT2U8swJ2Tw80-27">
          <mxGeometry y="50" width="160" height="70" as="geometry" />
        </mxCell>
        <mxCell id="sCaKoneeT2U8swJ2Tw80-29" value="Product" style="swimlane;childLayout=stackLayout;horizontal=1;startSize=50;horizontalStack=0;rounded=1;fontSize=14;fontStyle=0;strokeWidth=2;resizeParent=0;resizeLast=1;shadow=0;dashed=0;align=center;arcSize=4;whiteSpace=wrap;html=1;" vertex="1" parent="1">
          <mxGeometry x="580" y="70" width="160" height="120" as="geometry" />
        </mxCell>
        <mxCell id="sCaKoneeT2U8swJ2Tw80-30" value="&lt;div&gt;&lt;u&gt;Product_ID&lt;/u&gt;&lt;/div&gt;Product_name&lt;br&gt;&lt;div&gt;Category&lt;/div&gt;&lt;div&gt;&lt;br&gt;&lt;/div&gt;" style="align=left;strokeColor=none;fillColor=none;spacingLeft=4;fontSize=12;verticalAlign=top;resizable=0;rotatable=0;part=1;html=1;" vertex="1" parent="sCaKoneeT2U8swJ2Tw80-29">
          <mxGeometry y="50" width="160" height="70" as="geometry" />
        </mxCell>
        <mxCell id="sCaKoneeT2U8swJ2Tw80-31" value="Production" style="swimlane;childLayout=stackLayout;horizontal=1;startSize=50;horizontalStack=0;rounded=1;fontSize=14;fontStyle=0;strokeWidth=2;resizeParent=0;resizeLast=1;shadow=0;dashed=0;align=center;arcSize=4;whiteSpace=wrap;html=1;" vertex="1" parent="1">
          <mxGeometry x="350" y="290" width="160" height="120" as="geometry" />
        </mxCell>
        <mxCell id="sCaKoneeT2U8swJ2Tw80-32" value="&lt;div&gt;&lt;u&gt;Production_ID&lt;/u&gt;&lt;/div&gt;&lt;div&gt;Production_date&lt;/div&gt;&lt;div&gt;Product_ID&lt;/div&gt;&lt;div&gt;Jumlah_material&lt;/div&gt;" style="align=left;strokeColor=none;fillColor=none;spacingLeft=4;fontSize=12;verticalAlign=top;resizable=0;rotatable=0;part=1;html=1;" vertex="1" parent="sCaKoneeT2U8swJ2Tw80-31">
          <mxGeometry y="50" width="160" height="70" as="geometry" />
        </mxCell>
        <mxCell id="sCaKoneeT2U8swJ2Tw80-33" value="Material" style="swimlane;childLayout=stackLayout;horizontal=1;startSize=50;horizontalStack=0;rounded=1;fontSize=14;fontStyle=0;strokeWidth=2;resizeParent=0;resizeLast=1;shadow=0;dashed=0;align=center;arcSize=4;whiteSpace=wrap;html=1;" vertex="1" parent="1">
          <mxGeometry x="90" y="290" width="160" height="120" as="geometry" />
        </mxCell>
        <mxCell id="sCaKoneeT2U8swJ2Tw80-34" value="&lt;div&gt;&lt;u&gt;Material_ID&lt;/u&gt;&lt;/div&gt;&lt;div&gt;Jumlah_yang_digunakan&lt;/div&gt;" style="align=left;strokeColor=none;fillColor=none;spacingLeft=4;fontSize=12;verticalAlign=top;resizable=0;rotatable=0;part=1;html=1;" vertex="1" parent="sCaKoneeT2U8swJ2Tw80-33">
          <mxGeometry y="50" width="160" height="70" as="geometry" />
        </mxCell>
        <mxCell id="sCaKoneeT2U8swJ2Tw80-37" value="" style="edgeStyle=entityRelationEdgeStyle;fontSize=12;html=1;endArrow=ERoneToMany;rounded=0;entryX=0;entryY=0.75;entryDx=0;entryDy=0;" edge="1" parent="1" target="sCaKoneeT2U8swJ2Tw80-29">
          <mxGeometry width="100" height="100" relative="1" as="geometry">
            <mxPoint x="510" y="360" as="sourcePoint" />
            <mxPoint x="610" y="260" as="targetPoint" />
          </mxGeometry>
        </mxCell>
        <mxCell id="sCaKoneeT2U8swJ2Tw80-40" value="" style="edgeStyle=entityRelationEdgeStyle;fontSize=12;html=1;endArrow=ERoneToMany;rounded=0;entryX=0;entryY=0.75;entryDx=0;entryDy=0;" edge="1" parent="1" target="sCaKoneeT2U8swJ2Tw80-32">
          <mxGeometry width="100" height="100" relative="1" as="geometry">
            <mxPoint x="250" y="360" as="sourcePoint" />
            <mxPoint x="340" y="520" as="targetPoint" />
          </mxGeometry>
        </mxCell>
        <mxCell id="sCaKoneeT2U8swJ2Tw80-43" value="Supplier" style="swimlane;childLayout=stackLayout;horizontal=1;startSize=50;horizontalStack=0;rounded=1;fontSize=14;fontStyle=0;strokeWidth=2;resizeParent=0;resizeLast=1;shadow=0;dashed=0;align=center;arcSize=4;whiteSpace=wrap;html=1;" vertex="1" parent="1">
          <mxGeometry x="270" y="590" width="160" height="120" as="geometry" />
        </mxCell>
        <mxCell id="sCaKoneeT2U8swJ2Tw80-44" value="&lt;div&gt;&lt;u&gt;Supplier_ID&lt;/u&gt;&lt;/div&gt;" style="align=left;strokeColor=none;fillColor=none;spacingLeft=4;fontSize=12;verticalAlign=top;resizable=0;rotatable=0;part=1;html=1;" vertex="1" parent="sCaKoneeT2U8swJ2Tw80-43">
          <mxGeometry y="50" width="160" height="70" as="geometry" />
        </mxCell>
        <mxCell id="sCaKoneeT2U8swJ2Tw80-47" value="Employee" style="swimlane;childLayout=stackLayout;horizontal=1;startSize=50;horizontalStack=0;rounded=1;fontSize=14;fontStyle=0;strokeWidth=2;resizeParent=0;resizeLast=1;shadow=0;dashed=0;align=center;arcSize=4;whiteSpace=wrap;html=1;" vertex="1" parent="1">
          <mxGeometry x="610" y="510" width="160" height="120" as="geometry" />
        </mxCell>
        <mxCell id="sCaKoneeT2U8swJ2Tw80-48" value="&lt;div&gt;&lt;u style=&quot;background-color: initial;&quot;&gt;Employee_ID&lt;/u&gt;&lt;br&gt;&lt;/div&gt;&lt;div&gt;&lt;span style=&quot;background-color: initial;&quot;&gt;Name&lt;/span&gt;&lt;/div&gt;&lt;div&gt;Role&lt;/div&gt;" style="align=left;strokeColor=none;fillColor=none;spacingLeft=4;fontSize=12;verticalAlign=top;resizable=0;rotatable=0;part=1;html=1;" vertex="1" parent="sCaKoneeT2U8swJ2Tw80-47">
          <mxGeometry y="50" width="160" height="70" as="geometry" />
        </mxCell>
        <mxCell id="sCaKoneeT2U8swJ2Tw80-49" value="" style="edgeStyle=entityRelationEdgeStyle;fontSize=12;html=1;endArrow=ERoneToMany;startArrow=ERzeroToMany;rounded=0;exitX=1;exitY=0.5;exitDx=0;exitDy=0;entryX=0;entryY=0.25;entryDx=0;entryDy=0;" edge="1" parent="1" source="sCaKoneeT2U8swJ2Tw80-28" target="sCaKoneeT2U8swJ2Tw80-48">
          <mxGeometry width="100" height="100" relative="1" as="geometry">
            <mxPoint x="610" y="390" as="sourcePoint" />
            <mxPoint x="90" y="525" as="targetPoint" />
            <Array as="points">
              <mxPoint x="380" y="270" />
              <mxPoint x="580" y="360" />
              <mxPoint x="440" y="235" />
              <mxPoint x="260" y="260" />
              <mxPoint x="150" y="380" />
              <mxPoint x="360" y="230" />
              <mxPoint x="60" y="270" />
            </Array>
          </mxGeometry>
        </mxCell>
        <mxCell id="sCaKoneeT2U8swJ2Tw80-46" value="" style="edgeStyle=entityRelationEdgeStyle;fontSize=12;html=1;endArrow=ERoneToMany;startArrow=ERzeroToMany;rounded=0;entryX=-0.011;entryY=0.384;entryDx=0;entryDy=0;entryPerimeter=0;" edge="1" parent="1" target="sCaKoneeT2U8swJ2Tw80-44">
          <mxGeometry width="100" height="100" relative="1" as="geometry">
            <mxPoint x="250" y="385" as="sourcePoint" />
            <mxPoint x="100" y="679.9999999999998" as="targetPoint" />
            <Array as="points">
              <mxPoint x="365" y="542.5" />
              <mxPoint x="240" y="480" />
              <mxPoint x="50" y="450" />
              <mxPoint x="365" y="542.5" />
              <mxPoint x="365" y="622.5" />
              <mxPoint x="345" y="552.5" />
            </Array>
          </mxGeometry>
        </mxCell>
      </root>
    </mxGraphModel>
  </diagram>
</mxfile>
